HIERARCHY
ROOT Hips
{
  OFFSET 0 0 0
  CHANNELS 6 Xposition Yposition Zposition Zrotation Xrotation Yrotation
  JOINT Spine
  {
    OFFSET 0 10 0
    CHANNELS 3 Zrotation Xrotation Yrotation
    JOINT Neck
    {
      OFFSET 0 30 0
      CHANNELS 3 Zrotation Xrotation Yrotation
      JOINT Head
      {
        OFFSET 0 8 0
        CHANNELS 3 Zrotation Xrotation Yrotation
        End Site
        {
          OFFSET 0 10 0
        }
      }
    }
    JOINT LeftArm
    {
      OFFSET 15 30 0
      CHANNELS 3 Zrotation Xrotation Yrotation
      JOINT LeftForeArm
      {
        OFFSET 25 0 0
        CHANNELS 3 Zrotation Xrotation Yrotation
        JOINT LeftHand
        {
          OFFSET 25 0 0
          CHANNELS 3 Zrotation Xrotation Yrotation
          End Site
          {
            OFFSET 10 0 0
          }
        }
      }
    }
    JOINT RightArm
    {
      OFFSET -15 30 0
      CHANNELS 3 Zrotation Xrotation Yrotation
      JOINT RightForeArm
      {
        OFFSET -25 0 0
        CHANNELS 3 Zrotation Xrotation Yrotation
        JOINT RightHand
        {
          OFFSET -25 0 0
          CHANNELS 3 Zrotation Xrotation Yrotation
          End Site
          {
            OFFSET -10 0 0
          }
        }
      }
    }
  }
  JOINT LeftUpLeg
  {
    OFFSET 10 -10 0
    CHANNELS 3 Zrotation Xrotation Yrotation
    JOINT LeftLeg
    {
      OFFSET 0 -35 0
      CHANNELS 3 Zrotation Xrotation Yrotation
      JOINT LeftToe
      {
        OFFSET 0 -40 0
        CHANNELS 3 Zrotation Xrotation Yrotation
        JOINT LeftToeEnd
        {
          OFFSET 0 0 0
          CHANNELS 3 Zrotation Xrotation Yrotation
          End Site
          {
            OFFSET 0 0 15
          }
        }
      }
    }
  }
  JOINT RightUpLeg
  {
    OFFSET -10 -10 0
    CHANNELS 3 Zrotation Xrotation Yrotation
    JOINT RightLeg
    {
      OFFSET 0 -35 0
      CHANNELS 3 Zrotation Xrotation Yrotation
      JOINT RightToe
      {
        OFFSET 0 -40 0
        CHANNELS 3 Zrotation Xrotation Yrotation
        JOINT RightToeEnd
        {
          OFFSET 0 0 0
          CHANNELS 3 Zrotation Xrotation Yrotation
          End Site
          {
            OFFSET 0 0 15
          }
        }
      }
    }
  }
}
MOTION
Frames:	19
Frame Time:	0.0333333
75.3713 85.435 -41.8353 0.647264 5.31962 -47.4408 5.66756 10.6692 9.54078 -14.9045 -19.001 -4.34891 14.9369 26.7656 -12.9009 -95.5176 7.24633 6.00955 12.1233 -2.23729 -18.6137 -1.05373 10.1467 -2.02404 83.3856 28.7294 5.9252 -16.2199 -4.18615 26.8876 0.394839 2.30574 -0.184703 7.238 -36.513 0.40666 -1.9254 30.5249 -0.907081 -1.96527 -2.29645 -0.501869 -3.97569e-016 -1.59028e-015 9.54166e-015 5.17416 5.43361 -1.21572 -0.104901 43.2861 3.0774 0.0691389 -13.0599 -3.75026 -6.36111e-015 -2.06736e-014 1.27222e-014 
73.7819 85.8845 -39.1638 0.717786 4.92058 -46.1681 5.44111 10.4309 8.71839 -15.3491 -18.3387 -4.96964 15.328 25.479 -13.3185 -95.4978 8.55136 5.65789 12.3321 -2.3376 -18.9605 -0.990486 9.92203 -2.08047 84.2631 27.2007 4.53372 -16.0746 -4.10044 26.6216 0.394996 3.00208 -0.206796 6.35221 -34.2244 1.88212 -1.84305 30.0147 -0.852985 -0.829479 -1.74121 -2.17565 8.82781e-032 -7.95139e-016 6.36111e-015 4.39306 5.63671 -2.08111 -0.467733 45.1665 3.01456 0.449172 -7.0322 -3.11221 6.36111e-015 -7.95139e-015 -0 
72.027 86.3132 -36.3594 0.977361 4.13291 -46.2794 4.39987 10.183 8.84271 -15.2886 -17.7139 -5.12635 16.0671 24.7294 -13.55 -94.9528 10.6163 5.3965 12.7873 -2.58011 -19.8206 -0.945961 8.8068 -2.11133 85.017 26.6715 2.98088 -15.9095 -4.01288 26.3319 0.376501 2.94769 -0.209272 5.5126 -31.5138 3.66088 -1.80892 29.7137 -0.772332 0.267209 -2.26622 -4.13724 1.49089e-016 -7.45443e-016 3.18055e-015 2.5894 3.93017 -2.45901 -0.745453 49.3824 2.7733 0.398698 2.01867 -0.924097 3.18055e-015 -1.27222e-014 3.18055e-015 
70.3797 86.7285 -33.7747 1.89491 2.92943 -46.0158 2.45457 9.9837 8.56934 -15.1144 -17.6611 -5.52421 16.5872 24.5736 -13.9726 -93.9602 12.7436 4.98365 13.7698 -3.13732 -21.7607 -0.932789 9.38992 -1.99921 85.2016 27.3065 2.35414 -15.6901 -3.89244 25.9178 0.380786 2.98572 -0.215598 3.21226 -28.5855 4.23454 -1.78879 28.4983 -0.689921 1.3067 -3.26113 -5.95258 1.2424e-016 -7.20594e-016 1.59028e-014 0.0623156 0.380076 -2.55663 -1.07142 55.7488 2.54192 0.644713 11.0382 -0.590075 -3.18055e-015 -1.11319e-014 6.36111e-015 
68.8635 87.1338 -31.3734 2.54634 1.49316 -45.4901 0.675644 10.54 7.88458 -14.8004 -18.2151 -5.7999 16.6207 25.0771 -13.9072 -92.6734 15.4579 3.94362 14.6908 -3.71067 -23.5706 -0.863508 7.71704 -2.01391 85.2597 26.4843 2.89708 -15.3643 -3.71581 25.307 0.37035 5.59805 -0.242475 0.718233 -25.2112 4.46968 -1.7788 27.0492 -0.578817 2.2783 -4.91435 -7.27704 1.49089e-016 -8.44835e-016 -3.18055e-015 -2.31641 -3.91573 -2.92965 -1.46188 63.3143 2.42195 1.25131 18.7818 -1.32779 -6.36111e-015 -7.15625e-015 8.34896e-015 
67.3444 87.4941 -29.1084 2.73496 0.498799 -45.1877 -0.376117 11.0767 6.92753 -14.2084 -18.6997 -5.76561 16.001 25.6317 -13.1502 -91.152 16.6731 2.29758 15.268 -4.06811 -24.671 -0.910326 6.93933 -2.0352 85.3169 25.9345 3.33529 -15.3629 -3.72129 25.3208 0.342409 6.02189 -0.251993 -1.00575 -21.9095 3.72367 -1.78861 25.7676 -0.457965 2.87454 -6.12018 -7.20833 9.93923e-017 -6.95746e-016 6.36111e-015 -3.90404 -8.57482 -3.70427 -1.86037 70.6369 2.60581 3.09434 19.0047 -4.83601 7.31269e-031 -9.69075e-015 4.32357e-015 
65.8129 87.7579 -26.8474 2.62024 -0.00957264 -44.4321 -0.601267 11.2344 5.70933 -13.9117 -18.4337 -5.93297 15.7064 25.6262 -12.7226 -89.646 17.1628 0.478556 15.595 -4.26411 -25.2502 -0.944252 6.5612 -2.03608 85.6669 24.4858 3.41429 -15.4768 -3.78016 25.541 0.333035 5.47697 -0.257493 -1.86974 -19.1499 3.572 -1.78083 25.2599 -0.366179 3.05997 -7.66755 -7.22153 8.69683e-017 -7.54761e-016 -0 -4.84771 -13.203 -5.03568 -2.33726 76.6333 2.98023 3.10822 12.2845 -6.66168 6.36111e-015 -9.14409e-015 7.55382e-015 
64.2683 87.8239 -24.6119 2.36539 -0.451842 -43.9173 -0.514066 11.3176 4.70607 -13.748 -18.2375 -5.98561 15.7593 26.2151 -12.3976 -87.978 18.438 -1.35264 15.733 -4.34005 -25.4658 -1.10913 5.41042 -2.01227 85.9572 23.5211 3.18997 -15.765 -3.93059 26.0889 0.354757 4.39272 -0.256869 -2.54995 -16.0997 3.87592 -1.71981 24.6315 -0.286443 3.28062 -9.86454 -8.06417 9.93954e-017 -7.95142e-016 -0 -5.49729 -18.0361 -5.9285 -2.75532 80.5486 3.23591 2.45756 7.03823 -7.26825 1.0152e-030 -9.14409e-015 6.36111e-015 
62.7187 87.8231 -22.4243 2.09072 -0.667376 -43.2493 -0.288321 11.385 3.43968 -13.2584 -18.3172 -6.06211 15.4682 26.7571 -11.9068 -85.9488 20.1118 -3.5066 15.7986 -4.38147 -25.541 -1.07627 4.0673 -2.13987 86.0421 23.6048 2.98092 -16.2786 -4.20498 27.019 0.403779 2.92253 -0.180871 -2.82809 -14.9972 4.00559 -1.57402 26.5982 -0.315586 3.42446 -12.1537 -7.97082 9.93923e-017 -7.95139e-016 -0 -5.76312 -22.9343 -6.68342 -2.84338 82.0471 3.12136 1.27508 2.30668 -6.32444 3.18055e-015 -1.51076e-014 4.77083e-015 
61.1745 87.4307 -20.3368 1.89553 -0.994582 -42.7095 -0.337484 11.6174 2.43441 -12.7036 -18.3726 -6.23049 15.3452 27.1633 -11.7046 -84.9484 20.0214 -4.64158 16.4887 -4.86307 -26.894 -0.927912 6.84794 -2.02127 86.1883 23.2792 2.8989 -16.6841 -4.44764 27.8131 0.400319 2.75648 -0.183987 -3.63135 -13.9749 1.99542 -1.4802 29.3526 -0.339333 3.76907 -14.9203 -5.3868 9.93923e-017 -6.95746e-016 9.54166e-015 -5.87788 -27.5412 -7.13251 -2.23758 81.5104 2.29959 -0.0602781 -2.79018 -4.57937 -6.36111e-015 -1.59028e-014 1.27222e-014 
59.4993 86.9799 -18.2753 2.33865 -1.53719 -42.5879 -1.39641 11.6415 1.69368 -11.6198 -18.8539 -6.25584 14.9523 28.0174 -11.3525 -81.7304 22.2218 -7.52762 16.0842 -4.58236 -26.0207 -1.03137 5.64122 -2.00427 86.4726 24.0923 2.87846 -17.1048 -4.70607 28.6231 0.397724 2.28489 -0.162753 -4.64271 -13.4737 2.4257 -1.39113 32.2301 -0.381756 4.32145 -18.7748 -4.50964 7.45443e-017 -7.20594e-016 6.36111e-015 -6.46785 -31.8766 -7.07187 -1.30152 79.0882 1.18662 -0.627893 -6.3421 -5.32918 3.53113e-031 -1.59028e-015 1.27222e-014 
57.8114 86.4611 -16.2933 2.55983 -1.70121 -42.2432 -1.90131 11.6906 0.380579 -10.7317 -18.9028 -6.31083 14.5426 27.9452 -10.6779 -79.5217 23.2406 -9.25026 16.3381 -4.76615 -26.5233 -1.03881 5.36668 -1.98116 86.769 24.1941 3.29033 -17.1937 -4.76012 28.7881 0.399354 2.61348 -0.176043 -5.14281 -12.5297 2.31969 -1.35154 34.5458 -0.398052 5.14975 -22.7755 -3.1574 1.98785e-016 -7.95139e-016 6.36111e-015 -6.50085 -35.4289 -7.29546 -0.508918 74.715 0.278586 -1.11236 -9.65393 -8.58554 1.41245e-030 -1.27222e-014 6.36111e-015 
56.0334 86.1003 -14.2108 2.88301 -1.70533 -42.1044 -2.25741 11.3152 -0.178702 -10.3654 -18.8372 -6.46597 14.6664 28.2871 -10.7743 -77.6769 24.5997 -10.8175 16.4455 -4.84588 -26.6996 -1.07557 5.36117 -1.91178 87.2328 23.6907 3.16557 -17.2844 -4.81827 28.9759 0.398706 2.45493 -0.161729 -5.50499 -11.123 2.36733 -1.33548 35.4779 -0.394851 5.77868 -24.7482 -3.75669 4.96962e-017 -1.09332e-015 -9.54166e-015 -6.36782 -38.1961 -7.19705 -0.0653657 68.5136 -0.199697 -1.53565 -10.6226 -8.71345 -3.18055e-015 -8.74653e-015 1.27222e-014 
54.1981 85.8911 -12.0572 3.13828 -1.55068 -42.2335 -2.36372 10.905 -0.644816 -9.77262 -18.7071 -6.42361 14.0502 28.3485 -10.4797 -76.4016 25.4683 -11.928 16.7096 -5.03499 -27.2052 -1.05216 4.98864 -1.96314 87.5336 23.4955 2.94586 -17.3175 -4.83684 29.0367 0.397318 1.77353 -0.151577 -5.68146 -9.15507 2.47173 -1.39684 35.5792 -0.358319 6.94821 -27.8608 -1.95907 1.98785e-016 -7.95139e-016 -0 -6.08224 -40.2041 -7.10302 0.22337 61.2537 -0.430956 -1.5136 -9.75283 -9.28696 -1.59028e-015 -7.15625e-015 3.18055e-015 
52.3554 85.686 -10.0244 3.77327 -1.48075 -41.8718 -2.93899 10.4842 -1.34088 -9.60883 -18.8275 -6.88271 14.1215 28.7499 -10.9225 -75.202 26.2351 -12.9367 17.0032 -5.25598 -27.7779 -0.990976 5.12784 -1.95461 88.3105 22.3074 2.8477 -17.1633 -4.7329 28.724 0.404692 2.65169 -0.171379 -6.13047 -7.20758 2.12545 -1.49479 35.1045 -0.320661 7.81965 -29.7863 -1.87914 -1.98785e-016 -3.97569e-016 6.36111e-015 -6.35432 -42.1684 -7.08365 0.402783 54.1123 -0.545952 -0.988499 -5.8909 -8.34991 -1.59028e-015 -1.03368e-014 9.54166e-015 
50.4563 85.428 -7.89509 4.10213 -1.34079 -41.5751 -2.9868 10.0828 -1.86805 -9.82632 -18.7601 -7.26972 14.4787 28.7502 -11.2716 -74.2872 27.1841 -13.9188 17.1159 -5.34231 -27.9719 -0.975011 5.10342 -1.93549 88.4249 22.8256 2.08902 -17.2385 -4.78136 28.8613 0.410731 1.80654 -0.112124 -6.1233 -4.95551 2.47578 -1.61954 34.5932 -0.286569 8.74318 -32.2417 -1.66692 3.97569e-016 0 6.36111e-015 -6.15486 -43.4881 -6.32164 0.528701 48.0343 -0.596261 -1.24861 -4.37933 -6.44348 -1.98785e-016 -1.00386e-014 9.54166e-015 
48.5086 85.0567 -5.89594 4.55655 -1.41112 -40.8826 -3.47382 9.8442 -2.54575 -9.59245 -18.682 -7.58438 14.5996 28.7505 -11.4381 -73.6556 27.8394 -14.5524 17.2216 -5.41819 -28.1502 -0.984338 4.8527 -1.92377 89.1045 21.9246 1.8703 -16.8835 -4.55266 28.1477 0.417704 2.40888 -0.117047 -6.2132 -3.09147 2.69016 -1.62756 34.8051 -0.342744 9.51984 -34.2276 -1.82837 3.97569e-016 0 -0 -5.86716 -43.8809 -4.71561 0.656706 43.8924 -0.59693 -2.50994 -10.1191 -6.44299 1.59028e-015 -8.74653e-015 6.36111e-015 
46.6279 84.7611 -3.87009 4.71799 -1.36147 -40.9641 -3.18696 9.52466 -2.6167 -9.93246 -18.3032 -7.58895 14.4516 28.5094 -11.4699 -74.2863 28.0799 -14.6516 17.2447 -5.42608 -28.1494 -0.979073 4.95103 -1.92403 89.3491 20.5822 1.3509 -16.4304 -4.28012 27.2861 0.414589 3.56841 -0.150922 -6.59207 -1.39792 1.32724 -1.67765 35.3488 -0.368996 10.9228 -35.3344 -0.111074 -3.97569e-016 -3.97569e-016 -0 -5.55037 -43.2046 -5.02256 0.634358 41.5365 -0.551269 -3.45388 -12.2654 -3.90054 -0 -7.15625e-015 -0 
44.6605 84.582 -1.88479 4.72185 -1.83402 -41.6258 -3.3976 9.92134 -2.37133 -10.0498 -18.5294 -7.53063 14.5419 28.6797 -11.291 -75.0491 27.7673 -14.4454 17.1577 -5.34618 -27.9298 -1.00817 5.13454 -1.9275 89.4666 20.0088 1.17159 -15.8295 -3.9331 26.1212 0.400654 4.33473 -0.1812 -6.89309 1.05961 1.47022 -1.61994 35.3499 -0.43744 11.6546 -35.848 -0.38171 5.96354e-016 0 -6.36111e-015 -4.96772 -41.6037 -5.36561 0.527384 41.0009 -0.475166 -3.76361 -10.1965 -2.08266 7.95139e-016 -9.54166e-015 3.18055e-015 
